# xmcd
#
# Track frame offsets: 
#        150
#        12696
#        24301
#        36639
#        49921
#        63004
#        74802
#        87905
#        99502
#        112315
#
# Disc length: 1657 seconds
#
# Revision: 1
# Processed by: cddbd v1.5.2PL0 Copyright (c) Steve Scherf et al.
# Submitted via: ExactAudioCopy v0.99pb3
#
DISCID=9106770a
DTITLE=Hank Williams - The Best Of Hank Williams
DYEAR=2004
DGENRE=Country
TTITLE0=I'm So Lonesome I Could Cry
TTITLE1=I'm Satisfied With You
TTITLE2=Move It On Over
TTITLE3=You're Gonna Change(Or I'm Gonna Leave)
TTITLE4=I Can't Get You Off My Mind
TTITLE5=I'll Be A Bachelor Till I Die
TTITLE6=Wedding Bells
TTITLE7=A Mansion On The Hill
TTITLE8=I'm A Long Gone Daddy
TTITLE9=Lost Highway
EXTD=
EXTT0=
EXTT1=
EXTT2=
EXTT3=
EXTT4=
EXTT5=
EXTT6=
EXTT7=
EXTT8=
EXTT9=
PLAYORDER=
